<svg xmlns="http://www.w3.org/2000/svg" xmlns:xlink="http://www.w3.org/1999/xlink" width="125" height="125" viewBox="0 0 125 125"><defs><filter id="a" x="0" y="0" width="125" height="125" filterUnits="userSpaceOnUse"><feOffset dy="1" input="SourceAlpha"/><feGaussianBlur stdDeviation="3" result="b"/><feFlood flood-opacity="0.161"/><feComposite operator="in" in2="b"/><feComposite in="SourceGraphic"/></filter></defs><g transform="translate(-365 -393)"><g transform="matrix(1, 0, 0, 1, 365, 393)" filter="url(#a)"><circle cx="53.5" cy="53.5" r="53.5" transform="translate(9 8)" fill="#fff"/></g><g transform="translate(392.402 427.538)"><g transform="translate(0)"><path d="M56.78,35.507c4.088,2.5,6.9,4.05,8.093,4.361l6.193-6.185c-1.514-.515-5.875-3.172-9.721-5.352-3.134-1.787-5.951-2.544-8.57-1.431l-.114-.121a10.122,10.122,0,0,0-1.181-10.463V8.328a8.82,8.82,0,0,0-.757-.84A9.455,9.455,0,0,0,42.706,4.33,12.946,12.946,0,0,0,37.1,6.587c-.333-.371-.674-.757-1.037-1.105A18.726,18.726,0,0,0,26.248,0V8.01a15.2,15.2,0,0,0-4.83-.068A18.881,18.881,0,0,0,13.491,11.1a38.156,38.156,0,0,0-5.875,4.936A76.617,76.617,0,0,0,0,24.764L13.491,38.255V33.447L26.248,46.181h0c5.549-5.375,7.063-6.814,11.023-10.675L32.554,30.76c-1.726,1.84-3.028,3.3-4.648,4.944l-1.658-1.635L13.491,21.312v4.807l-3.1-3.1A18.253,18.253,0,0,1,12.87,20.04c.2-.2.4-.379.6-.56,3.99-3.626,8.487-4.467,12.779-2.067V9.38a15.543,15.543,0,0,1,3.543,2.733l.469.507c4.807,5.11,5.231,10.319,2.271,14.945L37.271,32.3,50.837,45.863l.644-.666v8.017l5.3-5.3-5.3-5.3v-8.07l-5.186-5.186,1.832-1.825a5.837,5.837,0,0,1,3.354-1.878v8.01c1.438-.159,3.028.4,5.3,1.84M44.372,22.636l-2.423,2.347-.386-.386-6.988-7A20.608,20.608,0,0,1,37.1,14.68a7.805,7.805,0,0,1,3.785-2.271,4.709,4.709,0,0,1,4.346,1.514c2.339,2.339,2.067,5.633-.946,8.646" transform="translate(0)" fill="#1e1e1c"/></g></g></g></svg>