<?xml version="1.0" standalone="no"?>
<!DOCTYPE svg PUBLIC "-//W3C//DTD SVG 20010904//EN"
 "http://www.w3.org/TR/2001/REC-SVG-20010904/DTD/svg10.dtd">
<svg version="1.0" xmlns="http://www.w3.org/2000/svg"
 width="772.000000pt" height="772.000000pt" viewBox="0 0 772.000000 772.000000"
 preserveAspectRatio="xMidYMid meet">
<metadata>
Created by potrace 1.11, written by Peter Selinger 2001-2013
</metadata>
<g transform="translate(0.000000,772.000000) scale(0.100000,-0.100000)"
fill="#000000" stroke="none">
<path d="M5980 7490 c-19 -16 -40 -30 -47 -30 -7 0 -16 -6 -20 -12 -4 -7 -51
-42 -103 -78 -79 -53 -179 -124 -225 -157 -6 -5 -53 -37 -105 -72 -52 -36 -97
-67 -100 -70 -3 -3 -34 -26 -70 -51 -36 -24 -66 -48 -68 -52 -2 -4 -8 -8 -13
-8 -8 0 -114 -72 -146 -100 -7 -5 -16 -10 -22 -10 -5 0 -11 -3 -13 -7 -3 -8
-25 -24 -129 -95 -35 -23 -66 -45 -69 -49 -3 -3 -41 -30 -85 -59 -44 -30 -82
-57 -85 -60 -3 -3 -32 -23 -65 -45 -33 -22 -64 -44 -70 -48 -5 -4 -41 -30 -80
-57 -38 -27 -75 -54 -82 -60 -7 -5 -16 -10 -22 -10 -5 0 -11 -4 -13 -8 -1 -5
-52 -42 -113 -83 -60 -41 -112 -77 -115 -80 -5 -5 -106 -77 -140 -99 -20 -13
-212 -147 -225 -157 -6 -4 -33 -24 -60 -43 -28 -19 -51 -38 -53 -42 -2 -4 -8
-8 -12 -8 -9 0 -381 -258 -390 -270 -3 -4 -16 -13 -29 -20 -14 -7 -30 -17 -35
-22 -6 -5 -63 -45 -126 -88 -63 -44 -119 -83 -125 -88 -5 -4 -48 -34 -95 -67
-47 -32 -107 -75 -135 -94 -130 -91 -213 -150 -251 -177 -23 -16 -50 -35 -60
-42 -42 -27 -250 -172 -259 -180 -5 -4 -46 -33 -90 -64 -317 -221 -372 -259
-390 -272 -11 -9 -86 -60 -165 -115 -80 -55 -149 -104 -155 -108 -5 -5 -46
-33 -90 -63 -44 -30 -85 -59 -92 -65 -6 -5 -44 -32 -84 -60 -40 -27 -116 -80
-168 -118 -53 -37 -103 -71 -111 -77 -8 -5 -60 -41 -115 -80 -55 -39 -107 -75
-115 -80 -33 -23 -186 -130 -195 -138 -5 -4 -46 -32 -90 -62 -44 -30 -82 -57
-85 -60 -3 -3 -32 -23 -64 -45 -33 -22 -64 -45 -70 -50 -6 -6 -19 -16 -28 -21
-11 -6 560 -9 1562 -9 869 0 1580 -3 1580 -7 0 -4 -28 -65 -61 -135 -34 -70
-78 -164 -99 -208 -36 -76 -154 -323 -205 -430 -13 -27 -29 -61 -35 -75 -5
-14 -14 -32 -19 -40 -20 -33 -121 -251 -121 -260 0 -5 -5 -10 -12 -10 -6 0 -9
-3 -6 -6 3 -3 -13 -44 -37 -92 -68 -139 -89 -186 -87 -195 1 -4 -3 -7 -8 -7
-6 0 -10 -5 -10 -11 0 -6 -16 -42 -35 -80 -19 -38 -31 -69 -27 -69 4 0 3 -4
-3 -8 -9 -6 -68 -118 -69 -132 -1 -3 -18 -39 -38 -80 -52 -106 -151 -314 -153
-320 -1 -3 -20 -43 -42 -90 -125 -261 -153 -322 -153 -330 0 -6 -4 -10 -10
-10 -5 0 -10 -5 -10 -11 0 -11 -28 -73 -119 -259 -28 -58 -51 -109 -51 -114 0
-5 -6 -17 -13 -25 -20 -24 -48 -101 -37 -101 6 0 10 5 10 10 0 6 6 10 14 10 8
0 16 3 18 8 2 4 32 27 68 52 36 24 66 48 68 52 2 4 8 8 14 8 6 0 27 13 48 30
21 16 43 30 48 30 6 0 15 6 19 13 7 11 146 109 201 142 9 6 21 15 27 21 5 6
36 28 69 50 32 21 72 49 90 62 17 12 49 34 70 48 22 15 44 30 50 35 34 28 107
79 112 79 2 0 10 5 17 11 7 5 57 41 112 79 55 38 105 73 110 78 6 5 24 17 40
28 17 10 32 21 35 24 3 3 18 14 35 24 16 11 34 23 40 28 33 28 367 258 375
258 4 0 10 4 12 8 2 5 66 52 143 105 77 53 152 106 166 117 59 45 95 70 117
79 12 6 22 15 22 21 0 5 4 10 9 10 5 0 46 26 91 58 45 31 99 68 119 81 20 13
38 27 41 30 3 3 41 31 85 60 44 30 82 59 83 63 2 4 8 8 14 8 6 0 27 14 48 30
21 17 42 30 48 30 5 0 13 7 16 16 4 9 9 14 12 11 4 -3 12 -1 18 6 7 7 52 39
101 72 48 33 96 68 106 77 11 10 21 18 24 18 3 0 30 18 60 40 30 22 58 40 64
40 5 0 11 4 13 8 2 5 26 23 53 42 28 19 55 38 60 43 6 4 91 64 190 133 99 69
187 130 195 137 8 7 45 32 83 56 37 25 67 48 67 53 0 4 4 8 10 8 7 0 167 107
205 137 6 5 55 40 110 78 55 38 102 71 105 74 3 3 17 12 33 20 15 8 27 18 27
23 0 4 6 8 14 8 8 0 16 4 18 8 2 4 39 32 83 62 44 30 82 57 85 60 3 3 18 14
35 24 16 11 34 23 40 28 8 7 155 110 295 208 257 179 348 242 364 253 10 6 24
17 30 22 6 6 38 28 71 50 33 22 62 42 65 45 3 3 31 24 64 45 84 58 92 63 200
140 54 39 105 75 114 80 10 6 19 12 22 15 3 3 25 19 50 35 25 17 47 33 48 38
2 4 10 7 17 7 7 0 15 4 17 8 2 4 25 23 53 42 104 73 256 66 -1486 65 -864 0
-1573 3 -1575 7 -3 4 17 53 44 110 27 57 66 139 86 183 21 44 42 87 47 95 5 8
13 25 19 38 24 55 56 124 106 225 30 60 54 116 54 123 0 8 4 14 9 14 5 0 12
10 16 23 4 12 8 24 9 27 1 3 24 50 50 105 176 362 220 457 218 468 -1 4 2 7 8
7 5 0 10 4 10 9 0 6 33 79 74 163 40 84 88 185 106 223 18 39 65 138 105 220
40 83 92 193 116 245 24 52 47 97 51 98 5 2 8 9 8 15 0 10 53 129 71 157 5 8
12 22 15 30 7 18 54 116 153 323 39 81 71 152 71 158 0 5 4 9 8 9 5 0 9 7 9
15 0 21 -7 19 -47 -15z"/>
</g>
</svg>
