<svg id="Laag_2" data-name="Laag 2" xmlns="http://www.w3.org/2000/svg" width="66.23" height="17.9" viewBox="0 0 66.23 17.9">
  <g id="Laag_1" data-name="Laag 1">
    <g id="netflix-logo">
      <path id="Fill-14" d="M62.685,8.52,66.23,17.9c-1.044-.149-2.088-.334-3.15-.5l-2-5.185-2.047,4.773c-1.008-.167-2-.227-2.983-.358l3.58-8.2L56.367,0h3.019l1.826,4.7L63.169,0H66.23ZM53.98,0H51.235V16.259c.895.054,1.832.1,2.745.2ZM48.873,16.074c-2.5-.167-5-.316-7.554-.376V0h2.8V13.049c1.6.042,3.2.173,4.773.245ZM38.336,6.36V9.153H34.511v6.36H31.754V0h7.828V2.8H34.511v3.58ZM27.053,2.78V15.662c-.931,0-1.879,0-2.792.036V2.8H21.367V0h8.6V2.8ZM18.347,9.3c-1.229,0-2.685,0-3.729.06v4.177c1.641-.113,3.282-.245,4.94-.3v2.685l-7.757.6V0h7.757V2.8h-4.94V6.563c1.08,0,2.739-.054,3.729-.054ZM2.852,7.757v9.749c-1.008.113-1.9.245-2.852.394V0H2.667L6.3,10.143V0H9.1V16.742c-.99.167-1.993.227-3.061.376Z" fill="#fff"/>
    </g>
  </g>
</svg>
