<svg id="Laag_2" data-name="Laag 2" xmlns="http://www.w3.org/2000/svg" width="83" height="19.806" viewBox="0 0 83 19.806">
  <g id="logo">
    <path id="Path_4" data-name="Path 4" d="M0,6.538H3.871V9.745a6.6,6.6,0,0,1,2.363-.423,5.094,5.094,0,0,1,5.246,5.28,4.923,4.923,0,0,1-5.17,5.03H0Zm3.871,9.735a8.631,8.631,0,0,0,1.465.135c1.387,0,2.3-.749,2.3-1.921a1.975,1.975,0,0,0-2.186-1.94,5.211,5.211,0,0,0-1.579.231ZM17.989,9.322c4.277,0,5.912,2.784,5.912,5.242,0,2.688-1.882,5.242-5.874,5.242-4.277,0-5.949-2.765-5.949-5.242,0-2.611,1.771-5.242,5.914-5.242Zm0,7.2a1.96,1.96,0,1,0,0-3.917,1.96,1.96,0,1,0,0,3.916Zm6.7-9.986h3.867v13.1H24.69Zm8.931,10.906a2.294,2.294,0,1,1-2.3-2.342h.015A2.3,2.3,0,0,1,33.621,17.443Zm8.746,1.728a8,8,0,0,1-3.127.634c-3.3,0-5.59-2.132-5.59-5.185a5.136,5.136,0,0,1,5.476-5.3,9.932,9.932,0,0,1,3.164.518V13.2a5.621,5.621,0,0,0-2.458-.6,2.055,2.055,0,0,0-2.31,1.978c0,1.152.987,1.939,2.422,1.939a5.755,5.755,0,0,0,2.421-.633ZM48.8,9.318c4.277,0,5.912,2.784,5.912,5.242,0,2.688-1.883,5.242-5.874,5.242-4.277,0-5.949-2.765-5.949-5.242,0-2.607,1.769-5.237,5.911-5.237Zm0,7.2a1.96,1.96,0,1,0-2.041-1.958A1.911,1.911,0,0,0,48.8,16.519Zm6.754-7.024h3.858v1.344a4.24,4.24,0,0,1,3.261-1.516,3.2,3.2,0,0,1,3.038,1.8,4.729,4.729,0,0,1,3.592-1.8c2.274,0,3.258,1.8,3.258,3.821v6.489H68.693V13.816a1.082,1.082,0,0,0-1.077-1.21A1.986,1.986,0,0,0,66,13.644v5.99H62.105V13.892a1.159,1.159,0,0,0-1.137-1.287,2.031,2.031,0,0,0-1.561,1.042v5.99h-3.86ZM77.135.379a5.556,5.556,0,1,1-5.5,5.557,5.53,5.53,0,0,1,5.5-5.557m0-.379A5.931,5.931,0,1,0,83,5.932,5.909,5.909,0,0,0,77.135,0Zm-2.72,6.471A1.494,1.494,0,0,1,72.836,5.1c0-1.611,2.043-3.088,2.748-3.417.11-.051.284.158.348.29.054.108.032.148,0,.162h0c-1.282.687-2.662,1.976-2.662,3.183,0,.523.275.727.981.727.83,0,2.714-1.143,2.714-1.967,0-.308-.228-.464-.679-.464a1.886,1.886,0,0,0-1.895,1.352c-.013.046-.064.067-.133.053-.089-.019-.179-.087-.17-.167a2.077,2.077,0,0,1,1.938-1.767A1.306,1.306,0,0,1,77.3,4.2C77.3,5.37,75.675,6.471,74.415,6.471Zm1.5-4.377.011.023Zm.336,8.283c-.631,0-1.7-.284-1.7-1.355,0-.825.692-1.8,2-2.8l.033-.025c.087-.068.305.069.4.189s.047.165.026.183h0c-.623.521-2.084,1.741-2.084,2.731,0,.379.307.622.8.622a6.261,6.261,0,0,0,2.274-.528c.105-.043.228.095.284.21s.045.183-.009.213a3.992,3.992,0,0,1-2.032.561Zm2.758-3.845c-1.38,0-1.4-1.018-1.4-1.061A.671.671,0,0,1,77.835,5c.058-.056.178-.027.226-.011.095.03.2.095.213.158a.074.074,0,0,1-.029.075.62.62,0,0,0-.284.514c0,.2.206.406.586.406A2.472,2.472,0,0,0,81,4.176c0-.615-.452-.744-.831-.744a3.338,3.338,0,0,0-2.321,1.312h0a.086.086,0,0,1-.082.033c-.1-.013-.245-.171-.3-.3a.164.164,0,0,1,0-.164,4.58,4.58,0,0,1,.827-.786,2.622,2.622,0,0,1,1.541-.59,1.439,1.439,0,0,1,1.526,1.478,2.318,2.318,0,0,1-2.357,2.12Z" fill="#fff"/>
  </g>
</svg>
