<svg xmlns="http://www.w3.org/2000/svg" viewBox="0 0 193.11 183.6"><defs><style>.cls-1{fill:#ffd25f;}.cls-2,.cls-3{fill:#1d1d1b;}.cls-3{stroke:#1d1d1b;stroke-miterlimit:10;stroke-width:0.5px;}</style></defs><title>Middel 1</title><g id="Laag_2" data-name="Laag 2"><g id="Laag_1-2" data-name="Laag 1"><polygon class="cls-1" points="42.09 183.6 79.22 105.71 0 105.71 151.02 0 113.88 77.89 193.11 77.89 42.09 183.6"/><path class="cls-2" d="M66.89,75v.89H65.3v4.59h-.93V75.92H62.78V75Z"/><path class="cls-2" d="M73.05,75v5.48h-.93V78.16h-2.6v2.35h-.93V75h.93V77.3h2.6V75Z"/><path class="cls-2" d="M79.2,79.64v.87H75.35V75H79.2v.87H76.28v1.4h2.79v.86H76.28v1.48Z"/><path class="cls-2" d="M84.26,80.51V75h2.21c1.21,0,1.81.6,1.81,1.49a1.26,1.26,0,0,1-.79,1.22A1.26,1.26,0,0,1,88.38,79c0,1-.65,1.54-1.82,1.54Zm.92-4.63v1.43h1.3c.58,0,.86-.24.86-.71s-.28-.72-.86-.72Zm0,2.28v1.5h1.36q.9,0,.9-.75c0-.47-.33-.75-.89-.75Z"/><path class="cls-2" d="M90.75,80.51h-1L91.89,75h1L95,80.51H94l-.39-1.06H91.15Zm1.63-4.32h0l-.91,2.41h1.84Z"/><path class="cls-2" d="M96.66,80.51V75h1.85a3,3,0,0,1,2.17.75,2.94,2.94,0,0,1,0,4,3,3,0,0,1-2.17.76Zm3.8-2.74a1.74,1.74,0,0,0-2-1.87h-.89v3.74h.89a2,2,0,0,0,1.49-.5A1.84,1.84,0,0,0,100.46,77.77Z"/><path class="cls-3" d="M55,87.69V93.4H56.4v1.26H52.05V93.4H53.4V90.5a11.74,11.74,0,0,1,.2-2l-3.05,6.17H49.7l-3-6.09a14.43,14.43,0,0,1,.16,1.88v2.9h1.35v1.26H43.93V93.4h1.44V87.69H43.93V86.43h3.18l3.07,6.13,3-6.13H56.4v1.26Z"/><path class="cls-3" d="M70.65,93.4v1.26H66.58V93.4h1.26l-.6-1.56H64l-.6,1.56h1.38v1.26h-4V93.4h1.13l2.43-5.72h-1V86.43h4.81v1.25H67L69.5,93.4Zm-3.84-2.68-1.17-3h-.06l-1.18,3Z"/><path class="cls-3" d="M77.8,87.89a2.58,2.58,0,0,0-1,1,3.42,3.42,0,0,0-.37,1.61,3.14,3.14,0,0,0,.37,1.55,2.65,2.65,0,0,0,1,1.06,2.87,2.87,0,0,0,1.47.38,3.79,3.79,0,0,0,2.29-.68V91.52H79.12V90.33H83v3.22a5.25,5.25,0,0,1-1.62.92,6,6,0,0,1-2.1.36,4.88,4.88,0,0,1-2.37-.55,3.88,3.88,0,0,1-1.58-1.53,4.38,4.38,0,0,1-.55-2.2,4.43,4.43,0,0,1,.54-2.18,4.13,4.13,0,0,1,1.48-1.54,3.9,3.9,0,0,1,2.06-.57,4.17,4.17,0,0,1,1.53.27,3.53,3.53,0,0,1,1.21.77v-.87H83v2.65l-1,.08A3.43,3.43,0,0,0,80.86,88a3,3,0,0,0-3.06-.1Z"/><path class="cls-3" d="M98.67,87.69H97.28v7h-.83L91,88.6v4.8h1.41v1.26H88V93.4h1.44V87.69H88V86.43H91L95.82,92V87.69H94.38V86.43h4.29Z"/><path class="cls-3" d="M110.07,89.29v-1.6h-3.93V90h1.58V89h1.19v3.2h-1.19v-1h-1.58V93.4h3.93V91.81h1.39v2.85h-8.31V93.4h1.43V87.69h-1.43V86.43h8.31v2.86Z"/><path class="cls-3" d="M125,86.43v2.94h-1.39V87.69H121.5V93.4h1.44v1.26h-4.48V93.4h1.44V87.69h-2.14v1.68h-1.39V86.43Z"/><path class="cls-3" d="M131.79,94.26a4.08,4.08,0,0,1-1.58-1.53,4.47,4.47,0,0,1,0-4.37,4.1,4.1,0,0,1,1.58-1.54,4.58,4.58,0,0,1,2.25-.56,4.52,4.52,0,0,1,2.22.56,4.08,4.08,0,0,1,1.57,1.54,4.47,4.47,0,0,1,0,4.37,4.05,4.05,0,0,1-1.57,1.53,4.74,4.74,0,0,1-4.47,0Zm3.66-1.13a2.53,2.53,0,0,0,1-1.07,3.45,3.45,0,0,0,.34-1.51A3.51,3.51,0,0,0,136.4,89,2.55,2.55,0,0,0,134,87.56a2.57,2.57,0,0,0-1.45.4,2.59,2.59,0,0,0-1,1.07,3.57,3.57,0,0,0,0,3,2.57,2.57,0,0,0,1,1.06,2.82,2.82,0,0,0,2.86,0Z"/><path class="cls-3" d="M149.69,90.91a2,2,0,0,1,.85,1.64,2,2,0,0,1-.36,1.21,2.28,2.28,0,0,1-1,.78,3.49,3.49,0,0,1-1.44.28,4.38,4.38,0,0,1-2.95-1.26v1.09h-1.4V91.77l1-.06a4.93,4.93,0,0,0,1.56,1.35,3.68,3.68,0,0,0,1.74.5,1.62,1.62,0,0,0,.9-.22.72.72,0,0,0,.35-.63c0-.31-.2-.57-.6-.81a9.45,9.45,0,0,0-2-.73,4.9,4.9,0,0,1-2.14-1,2.11,2.11,0,0,1-.68-1.6,2,2,0,0,1,.38-1.19,2.42,2.42,0,0,1,1-.79,3.2,3.2,0,0,1,1.34-.29,3.36,3.36,0,0,1,2.58,1.07v-.9h1.39v2.82l-.9,0A3.2,3.2,0,0,0,148,88a2.84,2.84,0,0,0-1.52-.46,1.91,1.91,0,0,0-1,.26.75.75,0,0,0-.4.68.89.89,0,0,0,.49.76,7.14,7.14,0,0,0,1.69.63A7.74,7.74,0,0,1,149.69,90.91Z"/></g></g></svg>