<svg xmlns="http://www.w3.org/2000/svg" width="85.002" height="18.94" viewBox="0 0 85.002 18.94">
  <g id="logo_youtube" transform="translate(-10.999 -17.7)">
    <path id="path10" d="M37.54,20.66a3.39,3.39,0,0,0-2.38-2.38c-2.12-.58-10.59-.58-10.59-.58s-8.47,0-10.59.56a3.46,3.46,0,0,0-2.38,2.41,36.768,36.768,0,0,0-.04,13.01A3.39,3.39,0,0,0,14,36.06c2.14.58,10.59.58,10.59.58s8.47,0,10.59-.56a3.39,3.39,0,0,0,2.38-2.38,35.72,35.72,0,0,0,.56-6.51,33.92,33.92,0,0,0-.58-6.53Z" fill="#fff"/>
    <path id="polygon12" d="M22.87,24.11v8.11l7.05-4.05Z" transform="translate(-1 -1)"/>
    <path id="path14" d="M50.34,34.95a2.88,2.88,0,0,1-1.14-1.69,11.17,11.17,0,0,1-.33-3V28.5a10.48,10.48,0,0,1,.38-3.08,3.18,3.18,0,0,1,1.2-1.69,3.93,3.93,0,0,1,2.16-.53,3.77,3.77,0,0,1,2.12.53,3.09,3.09,0,0,1,1.16,1.69,10.28,10.28,0,0,1,.38,3.08v1.72a10.41,10.41,0,0,1-.36,3.05A3.09,3.09,0,0,1,54.75,35a3.91,3.91,0,0,1-2.18.53A4.21,4.21,0,0,1,50.34,34.95Zm3-1.87a5.56,5.56,0,0,0,.22-1.89v-3.7a5.59,5.59,0,0,0-.22-1.87.8.8,0,0,0-1.54,0,5.59,5.59,0,0,0-.22,1.87v3.7a5.56,5.56,0,0,0,.22,1.89.78.78,0,0,0,.78.58.77.77,0,0,0,.76-.59Z" fill="#fff"/>
    <path id="path16" d="M91.48,30.24v.6a16.151,16.151,0,0,0,.07,1.72,1.43,1.43,0,0,0,.29.82.78.78,0,0,0,.67.27.84.84,0,0,0,.82-.47,4.09,4.09,0,0,0,.25-1.56l2.3.13a2.3,2.3,0,0,1,0,.42A3.12,3.12,0,0,1,95,34.63a3.7,3.7,0,0,1-2.54.8,3,3,0,0,1-2.76-1.25,7.17,7.17,0,0,1-.8-3.83V28.28a7.1,7.1,0,0,1,.82-3.9,3.13,3.13,0,0,1,2.81-1.23,3.76,3.76,0,0,1,2.12.51,2.73,2.73,0,0,1,1,1.56A11.409,11.409,0,0,1,96,28.17v2H91.48Zm.33-5a1.7,1.7,0,0,0-.27.82,16.339,16.339,0,0,0-.07,1.74v.85h2V27.8a16.932,16.932,0,0,0-.07-1.74,1.53,1.53,0,0,0-.29-.82.8.8,0,0,0-.62-.25.68.68,0,0,0-.68.26Z" fill="#fff"/>
    <path id="path18" d="M43.83,30l-3-11h2.65l1.07,5q.4,1.84.6,3.14h.07c.09-.62.29-1.65.6-3.12l1.11-5h2.65L46.48,30v5.26H43.85V30Z" fill="#fff"/>
    <path id="path20" d="M64.89,23.42V35.3h-2.1l-.22-1.45H62.5a2.74,2.74,0,0,1-2.56,1.65,2,2,0,0,1-1.74-.78,4.12,4.12,0,0,1-.56-2.43V23.42h2.67v8.71a2.72,2.72,0,0,0,.18,1.14.6.6,0,0,0,.58.33,1.14,1.14,0,0,0,.67-.22,1.09,1.09,0,0,0,.47-.53V23.42Z" fill="#fff"/>
    <path id="path22" d="M78.6,23.42V35.3H76.5l-.22-1.45h-.07a2.74,2.74,0,0,1-2.56,1.65,2,2,0,0,1-1.74-.78,4.12,4.12,0,0,1-.56-2.43V23.42H74v8.71a2.72,2.72,0,0,0,.18,1.14.6.6,0,0,0,.58.33,1.14,1.14,0,0,0,.67-.22,1.09,1.09,0,0,0,.47-.53V23.42Z" fill="#fff"/>
    <path id="path24" d="M72.15,21.19H69.5V35.28H66.9V21.19H64.24V19h7.91Z" fill="#fff"/>
    <path id="path26" d="M87.44,25.32a3,3,0,0,0-.78-1.63,2.13,2.13,0,0,0-1.49-.51,2.4,2.4,0,0,0-1.38.42,2.73,2.73,0,0,0-1,1.09h0V18.43H80.2V35.28h2.21l.27-1.11h.07a2.28,2.28,0,0,0,.94,1,2.9,2.9,0,0,0,1.38.36,2.09,2.09,0,0,0,2-1.25,9,9,0,0,0,.65-3.9V28.46A17.86,17.86,0,0,0,87.44,25.32ZM85,30.15a15.429,15.429,0,0,1-.11,2,2.27,2.27,0,0,1-.36,1,.87.87,0,0,1-.67.31,1.1,1.1,0,0,1-.6-.16,1.29,1.29,0,0,1-.45-.47V26.19a1.82,1.82,0,0,1,.47-.8,1.08,1.08,0,0,1,.71-.31.72.72,0,0,1,.62.31,2.55,2.55,0,0,1,.31,1.07A18,18,0,0,1,85,28.59Z" fill="#fff"/>
  </g>
</svg>
