<svg xmlns="http://www.w3.org/2000/svg" width="94.38" height="16.491" viewBox="0 0 94.38 16.491">
  <g id="logo_google_play" transform="translate(-7.94 -20.099)">
    <path id="path16" d="M18.74,30.34l3.39-1.85c.39-.21.79-.75,0-1.17l-3.39-1.85L16.31,27.9Z" fill="#fff"/>
    <path id="path23" d="M16.31,27.9,8.53,35.74a1,1,0,0,0,.63-.16l9.58-5.24Z" fill="#fff"/>
    <path id="path30" d="M16.31,27.9l2.43-2.45L9.16,20.23a1,1,0,0,0-.64-.12Z" fill="#fff"/>
    <path id="path37" d="M16.31,27.9,8.52,20.12c-.31.07-.58.35-.58.92V34.82c0,.52.21.9.59.93Z" fill="#fff"/>
    <path id="path46" d="M50.79,25.49a3.83,3.83,0,1,0,3.81,3.83,3.77,3.77,0,0,0-3.81-3.83Zm0,6.16a2.33,2.33,0,1,1,2.14-2.33,2.22,2.22,0,0,1-2.14,2.33Zm-8.32-6.16a3.83,3.83,0,1,0,3.81,3.83,3.76,3.76,0,0,0-3.81-3.83Zm0,6.16a2.33,2.33,0,1,1,2.14-2.33,2.22,2.22,0,0,1-2.14,2.33Zm-9.88-5v1.62h3.85a3.36,3.36,0,0,1-.87,2,3.94,3.94,0,0,1-3,1.18,4.325,4.325,0,1,1,0-8.65A4.07,4.07,0,0,1,35.49,24l1.14-1.14a5.62,5.62,0,0,0-4.05-1.63,5.94,5.94,0,0,0,0,11.88,5.25,5.25,0,0,0,5.52-5.47,5.57,5.57,0,0,0-.09-1ZM73,27.92a3.54,3.54,0,0,0-3.25-2.43,3.62,3.62,0,0,0-3.58,3.83,3.78,3.78,0,0,0,6.92,2.14l-1.29-.87A2.17,2.17,0,0,1,70,31.65a1.89,1.89,0,0,1-1.83-1.16l5.09-2.13Zm-5.18,1.29a2.11,2.11,0,0,1,2-2.23,1.47,1.47,0,0,1,1.42.82ZM63.7,32.92h1.67V21.67H63.74ZM61,26.34h-.05a2.61,2.61,0,0,0-2-.85,3.83,3.83,0,0,0,0,7.65,2.56,2.56,0,0,0,2-.87H61v.54c0,1.47-.78,2.25-2,2.25a2.1,2.1,0,0,1-1.91-1.36l-1.45.62A3.62,3.62,0,0,0,59,36.59c2,0,3.62-1.16,3.62-4V25.72H61Zm-1.91,5.3a2.33,2.33,0,0,1,0-4.63,2.16,2.16,0,0,1,2,2.33,2.15,2.15,0,0,1-2,2.31Zm21.76-10h-4V32.92h1.67V28.65h2.33a3.5,3.5,0,0,0,0-7Zm.05,5.41H78.53V23.23h2.38a1.931,1.931,0,1,1,0,3.86Zm10.3-1.62a3.09,3.09,0,0,0-3,1.73l1.47.62A1.59,1.59,0,0,1,91.24,27,1.62,1.62,0,0,1,93,28.45v.11a3.59,3.59,0,0,0-1.74-.44c-1.6,0-3.22.89-3.22,2.53a2.58,2.58,0,0,0,2.76,2.47A2.32,2.32,0,0,0,92.93,32H93v.87h1.6v-4.3a3.09,3.09,0,0,0-3.39-3.1Zm-.2,6.2c-.54,0-1.31-.27-1.31-.94,0-.87.94-1.2,1.76-1.2a3,3,0,0,1,1.53.38A2,2,0,0,1,91,31.63Zm9.45-5.9L98.54,30.6h-.05l-2-4.87h-1.8l3,6.81L96,36.33h1.74l4.58-10.61Zm-15,7.19h1.67V21.67H85.45Z" fill="#fff"/>
  </g>
</svg>
