<svg xmlns="http://www.w3.org/2000/svg" viewBox="0 0 533.9 416.77"><defs><style>.cls-1{fill:#222221;}</style></defs><title>logo_20th_century</title><g id="Laag_2" data-name="Laag 2"><g id="Layer_1" data-name="Layer 1"><path class="cls-1" d="M533.9,379.36v12.33l-392.31-45L123.51,345s-18.3,1.44-32.27,4.11c-10.28,1.85-23,17.68-17.67,33.5,4.93,15,25.27,23,25.27,23L0,416.77v-7.41l27.33-3.28-.21-68.64s.62-5.55,5.76-4.93c4.72.41,10.07.82,12.12,1.44,3.29,1,4.52,3.49,4.32,7.19v61.65l25.89-3.29S66,396,62.88,379.36c-.82-5.14-1.44-13.15,5.34-24,6.79-10.48,19.94-14.59,24.46-15.21C97,339.49,426,300,426,300l58.36,23.23v-5.55s0-5.34,5.34-5.34c7.61,0,8.22,0,12.34-.21,6.78,0,6.16,6,6.16,6l-.2,58.57Zm-49.53-5.54-.2-41.31-60-22.82-256.47,29.8Z"/><path class="cls-1" d="M504.92,287.71s3.91,12.12-9.86,14.79c-10.89,2.06-15-9-15-9Z"/><path class="cls-1" d="M466.49,0l27.34,278.05s-.62,4.72-3.91,5.34a3.27,3.27,0,0,1-3.9-2.67l-12.13-46L424,216.81l-52,48.7,43.16,27.75-41.52,4.92-23.42-15-18.29,19.53L292,307.44l34.73-36.17-53.43-30.83L248,244.35s21.79,6.37,30.62,13.76c8.63,7.4,10.48,15.21,8.43,27.95s-16,22.81-16,22.81l-81.59,9.87L180,314s-12.13-6.17-12.74-19.32c-.62-11.92,12.74-30.62,12.74-30.62l-20.76-6v18.5L117.75,283v14.38l37.4-4.93v16.86l-36.78,5.34.2,12.12L93.91,330V272.5l-8.22,1.23V261.61L424,202l46.65,17.47-15.41-63.3-30.62-11.51L403.2,178,403,196.05l-16.44,3.29V181.46l-14-14-18.09-4.11s3.91,2.46,5.35,3.28c4.52,3.5,5.75,7,5.75,12.54,0,7.6-10.07,11.71-10.07,11.71L372.58,202l-17.27,3.49-19.52-10.07-.2,13.36L321,211.47V172.42l-11.72-3.5s0,26.93-.2,36.79c-.21,7.6-8.43,9.66-8.43,9.66s-19.32,5.34-26.1,3.29C268,216.81,268,210,268,210V182.69l-6-3.9-.21,11.92-11.3,2.67.2,30.82-14.18,2.68.21-30.21-11.51,2.05-.21-7.6L217.83,188V230l-13.56,2.46-18.7-16.23.2,19.52-13.15,2.47.21-35.14L162.55,200v9.45l-17.26,4.52v7.4l15-3.29v8.63l-15,3.29v6.78l16.85-2.67.21,6-29.8,5.34.2-29.8s-3.49-.82-12.74-2c4.32,2.88,3.29,5.14,3.29,5.14l-6.78,6.78s-2.67-3.49-9.25-2.06c-5.14,1-7.4,6-7.4,10.69.21,4.93,2.88,11.1,9.46,10.07,5.75-1,8.63-6.78,8.63-6.78l8,4.11-4.11,6S100.49,251.54,97,252c-7.2-2.67-8.84-8.84-9-14.59a27.18,27.18,0,0,1,6.58-18.7l-8-4.52V205.5l337.65-74.8,27.74,10.69-11.1-44.6L418,89.19l-.2,32.47-9.87,2v-23c-.2-8-2.05-9.66-4.93-9.87-4.93-.2-6.37,3.91-6.37,10.69v24.87l-11.51,2.46L384.91,76,318.53,48.09a86.75,86.75,0,0,1,7,7.6c8.22,10.07,12.12,21,9,40.07A73.23,73.23,0,0,1,321,127.82c-7,11.92-23.84,23.23-23.84,23.23s-40.49,9.65-51.58,10.68c-10.9,1-25.08-9-32.06-16s-10.9-16-13-24.86c-2.06-9,4.11-33.09,4.11-33.09l-15-8s2.67,5.75,3.7,8.83c1,2.88,2.87,7,.41,18.7a28.69,28.69,0,0,1-6.17,13.57l-34.93,42.95,41.92-8v17.06l-98,22v-11.1s59.19-67.4,62.68-72.34c5.35-7.39,7.4-14,.62-19.31-7-5.55-14.39-3.09-22,3.28-6.78,5.76-10.27,18.5-10.27,18.5l-30,4.93,7.6-23c8.64-20.34,35.35-29.59,47.48-31,6.78-.82,17.88,3.09,17.88,3.09l36,16s1.23-1.85,3.08-5.13c4.93-9.25,26.92-33.09,34.94-37,15-7.2,30.82-9.66,44-8,8,1,26.1,8,26.1,8L384.91,71.1,384.7,51l12.13-4.31,35.34,15L417.58.41ZM440,92.68l-6.78-26.3L397,51.17V86.1a12.77,12.77,0,0,1,9.46-5.34A12.54,12.54,0,0,1,417,84.67Zm-46,76,6.78-10.48-19.52-4.11Zm-46,84.05,14.38-14-47.88-7.61Zm0-72.75c.41-2.67-.62-4.52-2.67-5.34-2.06-.62-8,0-8,0v10.69a52.4,52.4,0,0,0,6.78-1.44C345.66,183.51,347.51,182.69,347.92,180ZM305.17,91.24c1-10.68-4.93-19.93-12.33-25.48-6.78-4.93-16.44-5.55-21.58-4.73-4.93.62-14.59,4.73-22.6,10.9-8,6.37-15.83,18.9-17.06,23.63s-2.67,15.41,1.64,23c6.79,11.09,19.12,13.76,23.43,14.18,6.17.41,19.32-.21,32.88-11.31C300.65,112.41,303.73,104.19,305.17,91.24ZM294.49,203.45c0-3.08-.21-24-.21-24l-11.71-6v31c0,5.55,2.05,5.75,6.16,4.93S294.28,206.53,294.49,203.45Zm-35.76,83.23c4.11-5.35,3.7-11.51-2.67-16.65s-15.62-6.78-27.34-6c-9.86.62-21.37,6.17-24.45,8.64-6.17,4.93-12.33,13.14-6.17,20.75,3.29,4.11,8,5.76,15.42,7.19,6,1.44,19.31.82,28.56-2.47C251.53,294.69,254.82,292,258.73,286.68Zm-52.82-69.26.21-16.64-25.48-8Z"/><path class="cls-1" d="M377.9,91.45v9.87s-5.14,1.64-8.42,2.67v28.54l-10.28,3.09V83.44L369.48,81V93.51Z"/><path class="cls-1" d="M51.17,0h51.37S50.76,282.77,49.73,288.94c-.82,4.52-3.08,6.37-7.81,5.34-4.11-1-3.08-7.6-3.08-7.6Z"/><path class="cls-1" d="M28.36,301.27l26.92,4.32s0,14.18-15.62,12.53C24.66,316.27,28.36,301.27,28.36,301.27Z"/></g></g></svg>